<svg width="24" height="23" viewBox="0 0 24 23" fill="none" xmlns="http://www.w3.org/2000/svg">
<g opacity="0.5">
<path d="M12.0001 5.51814C8.61297 5.51814 5.80652 8.16129 5.80652 11.4536C5.80652 14.746 8.56458 17.3891 12.0001 17.3891C15.4356 17.3891 18.1936 14.6996 18.1936 11.4536C18.1936 8.20766 15.3872 5.51814 12.0001 5.51814ZM12.0001 15.2561C9.82265 15.2561 8.03233 13.5403 8.03233 11.4536C8.03233 9.36694 9.82265 7.65121 12.0001 7.65121C14.1775 7.65121 15.9678 9.36694 15.9678 11.4536C15.9678 13.5403 14.1775 15.2561 12.0001 15.2561Z" fill="#D1B0C2"/>
<path d="M18.4355 6.72377C19.2104 6.72377 19.8387 6.12171 19.8387 5.37902C19.8387 4.63634 19.2104 4.03427 18.4355 4.03427C17.6605 4.03427 17.0322 4.63634 17.0322 5.37902C17.0322 6.12171 17.6605 6.72377 18.4355 6.72377Z" fill="#D1B0C2"/>
<path d="M22.0645 1.90121C20.8065 0.649193 19.0161 0 16.9839 0H7.01613C2.80645 0 0 2.68952 0 6.72379V16.2298C0 18.2238 0.677419 19.9395 2.03226 21.1915C3.33871 22.3972 5.08065 23 7.06452 23H16.9355C19.0161 23 20.7581 22.3508 22.0161 21.1915C23.3226 19.9859 24 18.2702 24 16.2762V6.72379C24 4.77621 23.3226 3.10685 22.0645 1.90121ZM21.871 16.2762C21.871 17.7137 21.3387 18.873 20.4677 19.6613C19.5968 20.4496 18.3871 20.8669 16.9355 20.8669H7.06452C5.6129 20.8669 4.40323 20.4496 3.53226 19.6613C2.66129 18.8266 2.22581 17.6673 2.22581 16.2298V6.72379C2.22581 5.33266 2.66129 4.17339 3.53226 3.33871C4.35484 2.5504 5.6129 2.13306 7.06452 2.13306H17.0323C18.4839 2.13306 19.6935 2.5504 20.5645 3.38508C21.3871 4.21976 21.871 5.37903 21.871 6.72379V16.2762Z" fill="#D1B0C2"/>
</g>
</svg>
