<svg width="1073" height="970" viewBox="0 0 1073 970" fill="none" xmlns="http://www.w3.org/2000/svg">
<path d="M1000.16 721.102V248.898L536.5 12.7958L72.8401 248.898V721.102L536.5 957.204L1000.16 721.102Z" stroke="#3B3E3F" stroke-width="2" stroke-miterlimit="10"/>
<path d="M241.425 102.572L13.6189 218.766V229.704V338.881" stroke="#3B3E3F" stroke-width="2" stroke-miterlimit="10"/>
<path d="M823.94 871.349L1059.38 751.234V743.392V630.294" stroke="#3B3E3F" stroke-width="2" stroke-miterlimit="10"/>
<path d="M823.94 98.651L1059.38 218.766V229.704" stroke="#3B3E3F" stroke-width="2" stroke-miterlimit="10"/>
<path d="M1059.38 218.766V341.77" stroke="#3B3E3F" stroke-width="2" stroke-miterlimit="10"/>
<path d="M13.6189 743.392V751.234L241.425 867.428" stroke="#3B3E3F" stroke-width="2" stroke-miterlimit="10"/>
<path d="M13.6189 751.234V630.294" stroke="#3B3E3F" stroke-width="2" stroke-miterlimit="10"/>
<path d="M292.186 485L339.233 572.506H327.265L292.186 506.051L256.901 572.506H244.933L292.186 485Z" fill="#364250"/>
<path d="M346.249 565.077H411.041V572.506H346.249V565.077ZM346.249 488.921H411.041V496.351H346.249V488.921ZM346.249 525.864H408.359V533.294H346.249V525.864Z" fill="#364250"/>
<path d="M433.533 572.506H422.597V488.921H460.152C463.453 488.921 466.755 489.128 470.057 489.541C473.152 489.953 476.247 490.779 478.723 491.811C483.675 493.875 487.802 496.764 490.897 500.685C493.993 504.607 495.643 509.147 495.643 514.513C495.643 518.228 494.818 521.736 493.374 524.832C491.929 527.928 489.866 530.611 487.596 532.881C485.326 535.151 482.644 536.802 479.548 538.041C476.453 539.279 473.564 540.104 470.469 540.311C475.009 545.677 479.342 551.043 483.675 556.409C488.009 561.775 492.342 567.14 496.675 572.506H483.675C479.548 567.347 475.215 561.981 471.088 556.821C466.961 551.455 462.628 546.296 458.501 540.93V533.5C461.596 533.5 464.279 533.5 466.136 533.294C467.993 533.294 470.057 532.881 472.326 532.468C474.183 532.055 475.834 531.23 477.279 530.198C478.723 529.166 480.167 527.721 481.199 526.277C482.231 524.626 483.263 522.975 483.882 521.117C484.501 519.26 484.913 517.196 484.913 515.132C484.913 511.211 483.882 507.909 482.025 505.226C480.167 502.543 477.691 500.479 474.39 499.034C472.533 498.209 470.263 497.589 467.993 497.177C465.723 496.764 463.041 496.558 460.358 496.558H433.74L433.533 572.506Z" fill="#364250"/>
<path d="M679.704 576.427C675.165 576.427 670.831 575.808 666.911 574.364C662.784 572.919 659.276 571.061 656.181 568.585C653.086 566.108 650.609 563.219 648.752 559.917C646.895 556.615 646.07 553.106 646.07 549.391H657.006C657.006 551.868 657.625 554.344 658.657 556.821C659.689 559.091 661.133 561.155 663.197 563.012C665.26 564.87 667.53 566.315 670.419 567.347C673.308 568.378 676.403 568.998 679.911 568.998C683.625 568.998 686.72 568.378 689.403 567.347C692.085 566.315 694.355 564.87 696.418 563.219C698.275 561.361 699.72 559.504 700.752 557.234C701.783 554.964 702.196 552.487 702.196 550.01C702.196 547.534 701.783 545.47 700.958 543.2C700.133 541.136 698.688 539.278 696.831 537.627C694.974 535.976 692.498 534.738 689.609 533.913C686.72 533.087 683.006 532.468 678.673 532.468V525.038C681.768 525.038 684.45 524.625 686.72 523.8C688.99 522.974 691.053 521.942 692.498 520.704C693.942 519.466 695.18 518.021 696.006 516.37C696.831 514.719 697.244 513.068 697.244 511.21C697.244 509.353 696.831 507.702 696.212 506.051C695.593 504.4 694.561 502.955 693.117 501.51C691.672 500.272 690.022 499.24 687.958 498.415C685.895 497.589 683.418 497.176 680.736 497.176C677.847 497.176 675.371 497.589 673.308 498.415C671.244 499.24 669.387 500.272 667.943 501.717C666.498 502.955 665.466 504.606 664.641 506.257C664.022 507.908 663.609 509.766 663.609 511.83H652.879C652.879 508.734 653.498 505.844 654.943 503.161C656.387 500.478 658.244 498.002 660.927 496.144C663.403 494.081 666.498 492.636 669.8 491.398C673.308 490.366 676.815 489.747 680.736 489.747C684.657 489.747 688.164 490.366 691.466 491.398C694.768 492.43 697.656 494.081 700.133 495.938C702.609 497.796 704.466 500.066 705.91 502.749C707.355 505.432 707.974 508.115 707.974 511.21C707.974 513.068 707.561 514.719 706.942 516.576C706.323 518.227 705.291 519.878 704.259 521.53C703.021 523.181 701.783 524.419 700.133 525.657C698.482 526.895 696.625 527.927 694.768 528.547C700.545 529.578 704.878 532.261 708.386 536.183C711.688 540.104 713.339 544.851 713.339 550.217C713.339 553.932 712.513 557.44 710.656 560.742C708.799 564.044 706.529 566.727 703.434 569.204C700.339 571.474 696.831 573.332 692.91 574.776C688.577 575.602 684.244 576.427 679.704 576.427Z" fill="#364250"/>
<path d="M726.545 490.779H755.846C757.703 490.779 759.973 490.779 762.862 490.985C765.544 491.191 768.227 491.398 770.703 491.81C776.481 492.636 781.846 494.287 786.798 496.557C791.75 498.828 796.084 501.717 799.798 505.225C803.512 508.734 806.401 512.862 808.464 517.608C810.528 522.355 811.766 527.515 811.766 533.087C811.766 538.453 810.734 543.2 808.877 547.74C807.02 552.281 804.337 556.202 800.83 559.71C797.528 563.219 793.401 566.315 788.655 568.791C783.909 571.268 778.957 573.125 773.385 574.157C770.909 574.776 768.227 574.983 765.544 575.189C762.655 575.396 759.767 575.395 756.259 575.395H726.545V490.779ZM755.64 567.759C758.529 567.759 761.417 567.759 763.894 567.553C766.37 567.347 768.846 567.14 770.909 566.521C775.243 565.696 779.37 564.044 782.877 561.981C786.592 559.917 789.687 557.44 792.163 554.551C794.845 551.662 796.909 548.359 798.353 544.851C799.798 541.342 800.623 537.421 800.623 533.087C800.623 528.547 799.798 524.419 798.353 520.498C796.909 516.783 794.639 513.274 791.957 510.385C789.274 507.496 785.973 505.019 782.052 503.162C778.131 501.304 774.005 499.859 769.259 499.034C767.195 498.621 764.925 498.415 762.449 498.208C759.767 498.002 757.497 498.002 755.433 498.002H737.275V567.347H755.64V567.759Z" fill="#364250"/>
<path d="M619.451 393.16H698.894V410.496L619.451 423.704V393.16Z" fill="#6D7783"/>
<path d="M744.909 401.002C744.909 409.464 738.1 416.274 729.64 416.274H708.18C699.72 416.274 692.91 409.464 692.91 401.002C692.91 392.54 699.72 385.73 708.18 385.73H729.64C737.894 385.73 744.909 392.54 744.909 401.002Z" fill="#364250"/>
<path d="M731.497 370.664H706.323V385.73H731.497V370.664Z" fill="#6D7783"/>
<path d="M726.957 352.089H710.862V364.266H726.957V352.089Z" fill="#364250"/>
<path d="M710.862 358.281C710.862 358.281 712.926 340.945 718.91 340.945C724.894 340.945 726.957 358.281 726.957 358.281H710.862Z" fill="#494B6A"/>
<path d="M726.957 360.345H710.862V368.6H726.957V360.345Z" fill="#879099"/>
<path d="M810.527 364.059C809.908 363.853 808.877 363.44 807.639 363.234C805.162 362.615 801.655 361.789 797.321 360.964C792.988 360.138 788.036 359.519 782.671 359.106C779.988 358.9 777.306 358.693 774.417 358.693C771.528 358.487 768.846 358.487 765.957 358.487C763.068 358.487 760.179 358.487 757.497 358.693C754.608 358.693 751.925 358.9 749.243 359.106C743.878 359.519 738.925 360.138 734.592 360.964C731.497 361.583 728.814 361.996 726.751 362.615V366.33C729.021 366.949 731.703 367.362 734.592 367.981C738.925 368.806 743.878 369.425 749.243 369.838C751.925 370.044 754.608 370.251 757.497 370.251C760.385 370.457 763.068 370.457 765.957 370.457C768.846 370.457 771.734 370.457 774.417 370.251C777.306 370.251 779.988 370.044 782.671 369.838C788.036 369.425 792.988 368.806 797.321 367.981C801.655 367.155 805.162 366.33 807.639 365.71C808.877 365.504 809.908 365.091 810.527 364.885C811.147 364.679 811.559 364.472 811.559 364.472C811.559 364.472 811.353 364.266 810.527 364.059Z" fill="#879099"/>
<path d="M726.751 366.33C729.021 366.949 731.703 367.362 734.592 367.981C738.925 368.806 743.878 369.425 749.243 369.838C751.925 370.045 754.608 370.251 757.497 370.251C760.385 370.457 763.068 370.457 765.957 370.457C768.846 370.457 771.734 370.457 774.417 370.251C777.306 370.251 779.988 370.045 782.671 369.838C788.036 369.425 792.988 368.806 797.321 367.981C801.655 367.155 805.162 366.33 807.639 365.71C808.877 365.504 809.908 365.091 810.527 364.885C811.147 364.679 811.559 364.472 811.559 364.472H726.751V366.33Z" fill="#A0A8AF"/>
<path d="M627.086 364.059C627.705 363.853 628.737 363.44 629.975 363.234C632.451 362.615 635.959 361.789 640.292 360.964C644.625 360.138 649.578 359.519 654.943 359.106C657.625 358.9 660.308 358.693 663.197 358.693C666.085 358.487 668.768 358.487 671.657 358.487C674.546 358.487 677.434 358.487 680.117 358.693C683.006 358.693 685.688 358.9 688.371 359.106C693.736 359.519 698.688 360.138 703.021 360.964C706.117 361.583 708.799 361.996 710.862 362.615V366.33C708.593 366.949 705.91 367.362 703.021 367.981C698.688 368.806 693.736 369.425 688.371 369.838C685.688 370.044 683.006 370.251 680.117 370.251C677.228 370.457 674.546 370.457 671.657 370.457C668.768 370.457 665.879 370.457 663.197 370.251C660.308 370.251 657.625 370.044 654.943 369.838C649.578 369.425 644.625 368.806 640.292 367.981C635.959 367.155 632.451 366.33 629.975 365.71C628.737 365.504 627.705 365.091 627.086 364.885C626.467 364.679 626.054 364.472 626.054 364.472C626.054 364.472 626.467 364.266 627.086 364.059Z" fill="#879099"/>
<path d="M710.862 366.33C708.593 366.949 705.91 367.362 703.021 367.981C698.688 368.806 693.736 369.425 688.371 369.838C685.688 370.045 683.006 370.251 680.117 370.251C677.228 370.457 674.546 370.457 671.657 370.457C668.768 370.457 665.879 370.457 663.197 370.251C660.308 370.251 657.625 370.045 654.943 369.838C649.578 369.425 644.625 368.806 640.292 367.981C635.959 367.155 632.451 366.33 629.975 365.71C628.737 365.504 627.705 365.091 627.086 364.885C626.467 364.679 626.054 364.472 626.054 364.472H710.862V366.33Z" fill="#A0A8AF"/>
<path d="M511.326 393.16H431.882V410.496L511.326 423.704V393.16Z" fill="#6D7783"/>
<path d="M385.661 401.002C385.661 409.464 392.47 416.274 400.93 416.274H422.39C430.85 416.274 437.66 409.464 437.66 401.002C437.66 392.54 430.85 385.73 422.39 385.73H400.93C392.676 385.73 385.661 392.54 385.661 401.002Z" fill="#364250"/>
<path d="M424.454 370.664H399.28V385.73H424.454V370.664Z" fill="#6D7783"/>
<path d="M419.914 352.089H403.819V364.266H419.914V352.089Z" fill="#364250"/>
<path d="M419.708 358.281C419.708 358.281 417.644 340.945 411.66 340.945C405.676 340.945 403.613 358.281 403.613 358.281H419.708Z" fill="#494B6A"/>
<path d="M419.914 360.345H403.819V368.6H419.914V360.345Z" fill="#879099"/>
<path d="M320.043 364.059C320.662 363.853 321.693 363.44 322.932 363.234C325.408 362.615 328.916 361.789 333.249 360.964C337.582 360.138 342.534 359.519 347.899 359.106C350.582 358.9 353.264 358.693 356.153 358.693C359.042 358.487 361.725 358.487 364.613 358.487C367.502 358.487 370.391 358.487 373.074 358.693C375.963 358.693 378.645 358.9 381.328 359.106C386.693 359.519 391.645 360.138 395.978 360.964C399.073 361.583 401.756 361.996 403.819 362.615V366.33C401.549 366.949 398.867 367.362 395.978 367.981C391.645 368.806 386.693 369.425 381.328 369.838C378.645 370.044 375.963 370.251 373.074 370.251C370.185 370.457 367.502 370.457 364.613 370.457C361.725 370.457 358.836 370.457 356.153 370.251C353.264 370.251 350.582 370.044 347.899 369.838C342.534 369.425 337.582 368.806 333.249 367.981C328.916 367.155 325.408 366.33 322.932 365.71C321.693 365.504 320.662 365.091 320.043 364.885C319.424 364.679 319.011 364.472 319.011 364.472C319.011 364.472 319.424 364.266 320.043 364.059Z" fill="#879099"/>
<path d="M403.819 366.33C401.549 366.949 398.867 367.362 395.978 367.981C391.645 368.806 386.693 369.425 381.328 369.838C378.645 370.045 375.963 370.251 373.074 370.251C370.185 370.457 367.502 370.457 364.613 370.457C361.725 370.457 358.836 370.457 356.153 370.251C353.264 370.251 350.582 370.045 347.899 369.838C342.534 369.425 337.582 368.806 333.249 367.981C328.916 367.155 325.408 366.33 322.932 365.71C321.693 365.504 320.662 365.091 320.043 364.885C319.424 364.679 319.011 364.472 319.011 364.472H403.819V366.33Z" fill="#A0A8AF"/>
<path d="M503.485 364.059C502.866 363.853 501.834 363.44 500.596 363.234C498.12 362.615 494.612 361.789 490.278 360.964C485.945 360.138 480.993 359.519 475.628 359.106C472.945 358.9 470.263 358.693 467.374 358.693C464.485 358.487 461.803 358.487 458.914 358.487C456.025 358.487 453.136 358.487 450.454 358.693C447.565 358.693 444.882 358.9 442.2 359.106C436.835 359.519 431.882 360.138 427.549 360.964C424.454 361.583 421.771 361.996 419.708 362.615V366.33C421.978 366.949 424.66 367.362 427.549 367.981C431.882 368.806 436.835 369.425 442.2 369.838C444.882 370.044 447.565 370.251 450.454 370.251C453.342 370.457 456.025 370.457 458.914 370.457C461.803 370.457 464.691 370.457 467.374 370.251C470.263 370.251 472.945 370.044 475.628 369.838C480.993 369.425 485.945 368.806 490.278 367.981C494.612 367.155 498.12 366.33 500.596 365.71C501.834 365.504 502.866 365.091 503.485 364.885C504.104 364.679 504.516 364.472 504.516 364.472C504.516 364.472 504.31 364.266 503.485 364.059Z" fill="#879099"/>
<path d="M419.708 366.33C421.978 366.949 424.66 367.362 427.549 367.981C431.882 368.806 436.835 369.425 442.2 369.838C444.882 370.045 447.565 370.251 450.454 370.251C453.342 370.457 456.025 370.457 458.914 370.457C461.803 370.457 464.691 370.457 467.374 370.251C470.263 370.251 472.945 370.045 475.628 369.838C480.993 369.425 485.945 368.806 490.278 367.981C494.612 367.155 498.12 366.33 500.596 365.71C501.834 365.504 502.866 365.091 503.485 364.885C504.104 364.679 504.516 364.472 504.516 364.472H419.708V366.33Z" fill="#A0A8AF"/>
<path d="M620.689 429.483C620.689 441.866 610.578 451.772 598.404 451.772H533.198C520.817 451.772 510.913 441.659 510.913 429.483V398.319C510.913 385.936 521.024 376.03 533.198 376.03H598.404C610.784 376.03 620.689 386.142 620.689 398.319V429.483Z" fill="#494B6A"/>
<path d="M606.657 425.355C606.657 434.436 599.229 442.072 589.943 442.072H541.658C532.579 442.072 524.944 434.642 524.944 425.355V402.24C524.944 393.159 532.373 385.523 541.658 385.523H589.943C599.023 385.523 606.657 392.953 606.657 402.24V425.355Z" fill="#EEE1E7"/>
<path d="M574.261 451.772H557.341V483.555H574.261V451.772Z" fill="#364250"/>
<path d="M612.848 532.055C612.848 555.376 591.388 574.364 564.769 574.364C538.357 574.364 516.69 555.376 516.69 532.055C516.69 508.734 538.15 489.747 564.769 489.747C591.181 489.747 612.848 508.527 612.848 532.055Z" fill="#364250"/>
<path d="M604.594 532.055C604.594 551.455 586.848 567.14 564.769 567.14C542.896 567.14 524.944 551.455 524.944 532.055C524.944 512.655 542.69 496.97 564.769 496.97C586.642 496.97 604.594 512.655 604.594 532.055Z" fill="#4C5A68"/>
<path d="M593.451 532.055C593.451 546.089 580.658 557.44 564.769 557.44C548.88 557.44 536.087 546.089 536.087 532.055C536.087 518.021 548.88 506.67 564.769 506.67C580.658 506.67 593.451 518.021 593.451 532.055Z" fill="#2E3942"/>
<path d="M568.277 521.736C568.483 523.593 566.833 525.244 564.769 525.451C562.706 525.657 560.849 524.213 560.642 522.355C560.436 520.498 562.087 518.847 564.15 518.64C566.214 518.434 568.071 519.879 568.277 521.736Z" fill="white"/>
<path d="M578.801 532.055C579.007 534.738 576.737 537.215 573.436 537.421C570.341 537.627 567.658 535.563 567.245 532.674C567.039 529.991 569.309 527.514 572.61 527.308C575.706 527.308 578.594 529.372 578.801 532.055Z" fill="white"/>
<path d="M612.435 531.023C612.229 525.657 610.991 520.498 608.721 516.164C606.245 511.211 602.943 507.083 598.61 503.574C594.277 500.066 589.325 497.383 583.547 495.526C577.769 493.668 571.785 492.636 565.182 492.636C558.373 492.636 552.182 493.668 546.198 495.526C540.421 497.383 535.262 500.066 530.929 503.574C526.595 507.083 523.294 511.211 520.818 516.164C518.548 520.704 517.31 525.657 517.103 531.23H506.992C507.199 524.625 508.643 518.434 511.326 512.862C514.215 506.67 518.341 501.511 523.5 496.97C528.659 492.43 534.849 488.921 541.865 486.445C548.881 483.968 556.516 482.73 564.563 482.73C572.817 482.73 580.452 483.968 587.467 486.651C594.483 489.128 600.674 492.843 605.832 497.177C610.991 501.717 614.911 506.877 617.8 513.068C620.483 518.847 621.927 524.832 622.134 531.436H612.435V531.023ZM517.516 536.183C517.929 540.723 519.167 544.851 521.23 548.566C523.913 553.519 527.214 557.647 531.548 561.155C535.881 564.664 541.04 567.347 546.817 569.411C552.595 571.474 558.785 572.3 564.976 572.3C571.372 572.3 577.563 571.268 583.134 569.411C588.912 567.347 593.864 564.664 598.197 561.155C602.531 557.647 605.832 553.519 608.515 548.566C610.578 544.645 611.816 540.517 612.229 536.183H622.134C621.721 541.755 620.277 547.121 618.007 552.074C615.118 558.266 610.991 563.426 605.832 567.966C600.674 572.506 594.69 576.015 587.674 578.698C580.658 581.381 573.23 582.619 564.976 582.619C556.928 582.619 549.5 581.381 542.484 578.698C535.468 576.015 529.278 572.506 524.119 567.966C518.961 563.426 514.834 558.06 511.738 552.074C509.262 547.121 507.818 541.962 507.405 536.389H517.516V536.183Z" fill="#364250"/>
</svg>
