<svg width="267" height="266" viewBox="0 0 267 266" fill="none" xmlns="http://www.w3.org/2000/svg">
<path d="M206.288 132.36H60.2326C37.0169 132.36 18.1975 151.198 18.1975 174.409V208.195C18.1975 231.406 37.0169 250.24 60.2326 250.24H206.288C229.499 250.24 248.323 231.406 248.323 208.195V174.409C248.323 151.198 229.499 132.36 206.288 132.36ZM90.9179 158.663H77.3394V226.133H64.2207V158.663H50.6516V147.186H90.9179V158.663ZM129.274 226.133H117.638V219.752C115.475 222.112 113.247 223.913 110.92 225.129C108.592 226.395 106.345 226.987 104.158 226.987C101.456 226.987 99.4478 226.128 98.0731 224.383C96.7218 222.642 96.0321 220.061 96.0321 216.575V167.887H107.668V212.568C107.668 213.948 107.926 214.938 108.391 215.552C108.893 216.186 109.69 216.477 110.784 216.477C111.628 216.477 112.717 216.073 114.026 215.257C115.344 214.431 116.545 213.399 117.638 212.123V167.882H129.274V226.133ZM171.521 214.107C171.521 218.222 170.606 221.384 168.781 223.59C166.965 225.795 164.309 226.879 160.87 226.879C158.58 226.879 156.544 226.466 154.775 225.612C152.997 224.767 151.322 223.468 149.797 221.666V226.128H138.02V147.186H149.797V172.612C151.373 170.852 153.039 169.487 154.78 168.572C156.558 167.638 158.346 167.188 160.157 167.188C163.84 167.188 166.646 168.417 168.588 170.899C170.54 173.381 171.511 177.017 171.511 181.784V214.107H171.521ZM211.885 198.413H189.617V209.387C189.617 212.446 189.993 214.576 190.753 215.763C191.532 216.955 192.841 217.537 194.704 217.537C196.637 217.537 197.974 217.035 198.753 216.031C199.503 215.017 199.907 212.812 199.907 209.387V206.736H211.885V209.725C211.885 215.693 210.436 220.193 207.494 223.228C204.599 226.236 200.235 227.728 194.436 227.728C189.214 227.728 185.099 226.137 182.11 222.937C179.131 219.756 177.611 215.341 177.611 209.73V183.567C177.611 178.533 179.272 174.39 182.57 171.214C185.859 168.037 190.096 166.451 195.309 166.451C200.644 166.451 204.74 167.92 207.597 170.866C210.454 173.818 211.885 178.04 211.885 183.563V198.413Z" fill="#E8D7E1"/>
<path d="M194.817 176.633C192.959 176.633 191.636 177.154 190.829 178.242C190.003 179.265 189.619 181.015 189.619 183.46V189.348H199.908V183.46C199.908 181.015 199.495 179.26 198.679 178.242C197.895 177.158 196.586 176.633 194.817 176.633Z" fill="#E8D7E1"/>
<path d="M154.668 176.436C153.842 176.436 153.007 176.619 152.205 176.999C151.388 177.369 150.59 177.984 149.802 178.782V215.064C150.736 216.003 151.66 216.725 152.561 217.138C153.457 217.537 154.386 217.762 155.376 217.762C156.807 217.762 157.849 217.349 158.52 216.514C159.181 215.688 159.519 214.37 159.519 212.507V182.427C159.519 180.447 159.125 178.965 158.299 177.946C157.445 176.942 156.235 176.436 154.668 176.436Z" fill="#E8D7E1"/>
<path d="M79.3565 112.128H94.1079V76.047L111.285 25.1489H96.2897L87.1592 59.9161H86.2302L76.6445 25.1489H61.7852L79.3565 77.6704V112.128Z" fill="#E8D7E1"/>
<path d="M131.273 113.747C137.232 113.747 141.905 112.184 145.311 109.06C148.694 105.921 150.388 101.637 150.388 96.1473V63.0035C150.388 58.1192 148.657 54.0982 145.208 50.9968C141.736 47.9048 137.288 46.3471 131.864 46.3471C125.905 46.3471 121.162 47.8204 117.634 50.7622C114.115 53.7041 112.346 57.65 112.346 62.6375V95.8939C112.346 101.351 114.068 105.667 117.507 108.905C120.946 112.128 125.544 113.747 131.273 113.747ZM125.84 62.1495C125.84 60.756 126.342 59.63 127.322 58.7479C128.341 57.8846 129.631 57.467 131.235 57.467C132.967 57.467 134.37 57.8846 135.439 58.7479C136.504 59.63 137.035 60.756 137.035 62.1495V97.1092C137.035 98.8217 136.514 100.182 135.458 101.163C134.412 102.148 133.004 102.632 131.235 102.632C129.504 102.632 128.167 102.162 127.229 101.177C126.304 100.215 125.835 98.8639 125.835 97.1045V62.1495H125.84Z" fill="#E8D7E1"/>
<path d="M170.175 113.066C172.638 113.066 175.167 112.363 177.771 111.011C180.403 109.641 182.923 107.638 185.32 105.024V112.133H198.425V47.9704H185.32V96.6727C184.1 98.0662 182.744 99.211 181.29 100.121C179.807 101.022 178.587 101.473 177.625 101.473C176.396 101.473 175.491 101.135 174.96 100.436C174.421 99.7647 174.116 98.6667 174.116 97.1606V47.9704H161.03V101.595C161.03 105.418 161.8 108.276 163.32 110.171C164.868 112.095 167.13 113.066 170.175 113.066Z" fill="#E8D7E1"/>
</svg>
